<svg width="42" height="14" viewBox="0 0 42 14" fill="none" xmlns="http://www.w3.org/2000/svg">
<g clip-path="url(#clip0_3521_9301)">
<path d="M7.28582 0.823486C5.60035 0.877495 4.00447 1.56567 2.84219 2.73966C1.67991 3.91365 1.04432 5.47943 1.07243 7.09948C1.10054 8.71952 1.7901 10.2641 2.99246 11.4002C4.19483 12.5363 5.8137 13.173 7.50011 13.173C9.18651 13.173 10.8054 12.5363 12.0077 11.4002C13.2101 10.2641 13.8997 8.71952 13.9278 7.09948C13.9559 5.47943 13.3203 3.91365 12.158 2.73966C10.9957 1.56567 9.39986 0.877495 7.71439 0.823486H7.28582ZM16.2858 0.823486C14.6004 0.877495 13.0045 1.56567 11.8422 2.73966C10.6799 3.91365 10.0443 5.47943 10.0724 7.09948C10.1005 8.71952 10.7901 10.2641 11.9925 11.4002C13.1948 12.5363 14.8137 13.173 16.5001 13.173C18.1865 13.173 19.8054 12.5363 21.0077 11.4002C22.2101 10.2641 22.8997 8.71952 22.9278 7.09948C22.9559 5.47943 22.3203 3.91365 21.158 2.73966C19.9957 1.56567 18.3999 0.877495 16.7144 0.823486H16.2858ZM25.2858 0.823486C23.6004 0.877495 22.0045 1.56567 20.8422 2.73966C19.6799 3.91365 19.0443 5.47943 19.0724 7.09948C19.1005 8.71952 19.7901 10.2641 20.9925 11.4002C22.1948 12.5363 23.8137 13.173 25.5001 13.173C27.1865 13.173 28.8054 12.5363 30.0077 11.4002C31.2101 10.2641 31.8997 8.71952 31.9278 7.09948C31.9559 5.47943 31.3203 3.91365 30.158 2.73966C28.9957 1.56567 27.3999 0.877495 25.7144 0.823486H25.2858ZM34.2858 0.823486C32.6004 0.877495 31.0045 1.56567 29.8422 2.73966C28.6799 3.91365 28.0443 5.47943 28.0724 7.09948C28.1005 8.71952 28.7901 10.2641 29.9925 11.4002C31.1948 12.5363 32.8137 13.173 34.5001 13.173C36.1865 13.173 37.8054 12.5363 39.0077 11.4002C40.2101 10.2641 40.8997 8.71952 40.9278 7.09948C40.9559 5.47943 40.3203 3.91365 39.158 2.73966C37.9957 1.56567 36.3999 0.877495 34.7144 0.823486H34.2858Z" stroke="#CBD5E1" stroke-width="1.5"/>
</g>
<defs>
<clipPath id="clip0_3521_9301">
<rect width="42" height="14" fill="white"/>
</clipPath>
</defs>
</svg>
