<svg width="156" height="156" viewBox="0 0 156 156" fill="none" xmlns="http://www.w3.org/2000/svg">
<circle cx="76" cy="74" r="68" fill="#F5F5FF"/>
<g filter="url(#filter0_d_2025_8114)">
<circle cx="76" cy="74" r="53" fill="#C6C3FF" shape-rendering="crispEdges"/>
<circle cx="76" cy="74" r="53" stroke="#C6C3FF" stroke-opacity="0.5" shape-rendering="crispEdges"/>
</g>
<g filter="url(#filter1_d_2025_8114)">
<circle cx="76" cy="74" r="38" fill="#4038FF"/>
</g>
<path d="M85.6836 61.45C85.5502 61.45 85.4169 61.4167 85.3002 61.35C82.1002 59.7 79.3336 59 76.0169 59C72.7169 59 69.5836 59.7833 66.7336 61.35C66.3336 61.5667 65.8336 61.4167 65.6002 61.0167C65.4963 60.8218 65.473 60.5938 65.5353 60.3819C65.5976 60.17 65.7406 59.991 65.9336 59.8833C69.0336 58.2 72.4336 57.3333 76.0169 57.3333C79.5669 57.3333 82.6669 58.1167 86.0669 59.8667C86.4836 60.0833 86.6336 60.5833 86.4169 60.9833C86.351 61.1223 86.2472 61.2398 86.1175 61.3223C85.9877 61.4049 85.8373 61.4492 85.6836 61.45ZM61.8336 70.2C61.6799 70.2014 61.5289 70.1603 61.3972 70.0811C61.2656 70.0019 61.1584 69.8878 61.0876 69.7515C61.0169 69.6151 60.9852 69.4618 60.9963 69.3086C61.0073 69.1553 61.0606 69.0081 61.1502 68.8833C62.8002 66.55 64.9002 64.7167 67.4002 63.4333C72.6336 60.7333 79.3336 60.7167 84.5836 63.4167C87.0836 64.7 89.1836 66.5167 90.8336 68.8333C90.8975 68.9229 90.9431 69.0243 90.9676 69.1315C90.9922 69.2388 90.9953 69.3499 90.9767 69.4584C90.9581 69.5668 90.9182 69.6705 90.8593 69.7635C90.8004 69.8565 90.7237 69.9369 90.6336 70C90.2502 70.2667 89.7336 70.1833 89.4669 69.8C88.0073 67.734 86.0686 66.0526 83.8169 64.9C79.0336 62.45 72.9169 62.45 68.1502 64.9167C65.8836 66.0833 63.9836 67.75 62.4836 69.85C62.3502 70.0833 62.1002 70.2 61.8336 70.2ZM72.2502 90.3167C72.1409 90.318 72.0326 90.2965 71.9321 90.2534C71.8316 90.2103 71.7413 90.1467 71.6669 90.0667C70.2169 88.6167 69.4336 87.6833 68.3169 85.6667C67.1669 83.6167 66.5669 81.1167 66.5669 78.4333C66.5669 73.4833 70.8002 69.45 76.0002 69.45C81.2002 69.45 85.4336 73.4833 85.4336 78.4333C85.4336 78.9 85.0669 79.2667 84.6002 79.2667C84.1336 79.2667 83.7669 78.9 83.7669 78.4333C83.7669 74.4 80.2836 71.1167 76.0002 71.1167C71.7169 71.1167 68.2336 74.4 68.2336 78.4333C68.2336 80.8333 68.7669 83.05 69.7836 84.85C70.8502 86.7667 71.5836 87.5833 72.8669 88.8833C73.1836 89.2167 73.1836 89.7333 72.8669 90.0667C72.6836 90.2333 72.4669 90.3167 72.2502 90.3167ZM84.2002 87.2333C82.2169 87.2333 80.4669 86.7333 79.0336 85.75C76.5502 84.0667 75.0669 81.3333 75.0669 78.4333C75.0669 77.9667 75.4336 77.6 75.9002 77.6C76.3669 77.6 76.7336 77.9667 76.7336 78.4333C76.7336 80.7833 77.9336 83 79.9669 84.3667C81.1502 85.1667 82.5336 85.55 84.2002 85.55C84.6002 85.55 85.2669 85.5 85.9336 85.3833C86.3836 85.3 86.8169 85.6 86.9002 86.0667C86.9836 86.5167 86.6836 86.95 86.2169 87.0333C85.2669 87.2167 84.4336 87.2333 84.2002 87.2333ZM80.8502 90.6667C80.7836 90.6667 80.7002 90.65 80.6336 90.6333C77.9836 89.9 76.2502 88.9167 74.4336 87.1333C73.2824 85.9966 72.3695 84.6417 71.7485 83.1478C71.1275 81.6539 70.8108 80.0512 70.8169 78.4333C70.8169 75.7333 73.1169 73.5333 75.9502 73.5333C78.7836 73.5333 81.0836 75.7333 81.0836 78.4333C81.0836 80.2167 82.6336 81.6667 84.5502 81.6667C86.4669 81.6667 88.0169 80.2167 88.0169 78.4333C88.0169 72.15 82.6002 67.05 75.9336 67.05C71.2002 67.05 66.8669 69.6833 64.9169 73.7667C64.2669 75.1167 63.9336 76.7 63.9336 78.4333C63.9336 79.7333 64.0502 81.7833 65.0502 84.45C65.2169 84.8833 65.0002 85.3667 64.5669 85.5167C64.1336 85.6833 63.6502 85.45 63.5002 85.0333C62.6971 82.9255 62.2848 80.689 62.2836 78.4333C62.2836 76.4333 62.6669 74.6167 63.4169 73.0333C65.6336 68.3833 70.5502 65.3667 75.9336 65.3667C83.5169 65.3667 89.6836 71.2167 89.6836 78.4167C89.6836 81.1167 87.3836 83.3167 84.5502 83.3167C81.7169 83.3167 79.4169 81.1167 79.4169 78.4167C79.4169 76.6333 77.8669 75.1833 75.9502 75.1833C74.0336 75.1833 72.4836 76.6333 72.4836 78.4167C72.4836 81.2667 73.5836 83.9333 75.6002 85.9333C77.1836 87.5 78.7002 88.3667 81.0502 89.0167C81.5002 89.1333 81.7502 89.6 81.6336 90.0333C81.5502 90.4167 81.2002 90.6667 80.8502 90.6667Z" fill="#F5F5FF"/>
<defs>
<filter id="filter0_d_2025_8114" x="0.5" y="0.5" width="155" height="155" filterUnits="userSpaceOnUse" color-interpolation-filters="sRGB">
<feFlood flood-opacity="0" result="BackgroundImageFix"/>
<feColorMatrix in="SourceAlpha" type="matrix" values="0 0 0 0 0 0 0 0 0 0 0 0 0 0 0 0 0 0 127 0" result="hardAlpha"/>
<feOffset dx="2" dy="4"/>
<feGaussianBlur stdDeviation="12"/>
<feComposite in2="hardAlpha" operator="out"/>
<feColorMatrix type="matrix" values="0 0 0 0 0.25098 0 0 0 0 0.219608 0 0 0 0 1 0 0 0 0.08 0"/>
<feBlend mode="normal" in2="BackgroundImageFix" result="effect1_dropShadow_2025_8114"/>
<feBlend mode="normal" in="SourceGraphic" in2="effect1_dropShadow_2025_8114" result="shape"/>
</filter>
<filter id="filter1_d_2025_8114" x="16" y="16" width="124" height="124" filterUnits="userSpaceOnUse" color-interpolation-filters="sRGB">
<feFlood flood-opacity="0" result="BackgroundImageFix"/>
<feColorMatrix in="SourceAlpha" type="matrix" values="0 0 0 0 0 0 0 0 0 0 0 0 0 0 0 0 0 0 127 0" result="hardAlpha"/>
<feOffset dx="2" dy="4"/>
<feGaussianBlur stdDeviation="12"/>
<feComposite in2="hardAlpha" operator="out"/>
<feColorMatrix type="matrix" values="0 0 0 0 0.25098 0 0 0 0 0.219608 0 0 0 0 1 0 0 0 0.5 0"/>
<feBlend mode="normal" in2="BackgroundImageFix" result="effect1_dropShadow_2025_8114"/>
<feBlend mode="normal" in="SourceGraphic" in2="effect1_dropShadow_2025_8114" result="shape"/>
</filter>
</defs>
</svg>
