<svg width="22" height="22" viewBox="0 0 22 22" fill="none" xmlns="http://www.w3.org/2000/svg">
<g clip-path="url(#clip0_1747_1076)">
<path d="M11.0358 0C5.01175 0 0.128052 4.91303 0.128052 10.9728C0.128052 17.0329 5.01175 21.9459 11.0358 21.9459C17.0599 21.9459 21.9436 17.0329 21.9436 10.9728C21.9436 4.91333 17.0599 0 11.0358 0ZM21.2342 10.9728C21.2342 16.6387 16.6684 21.2321 11.0358 21.2321C5.40323 21.2321 0.837476 16.6387 0.837476 10.9728C0.837476 5.30719 5.40353 0.713472 11.0358 0.713472C16.6681 0.713472 21.2342 5.30719 21.2342 10.9728Z" fill="#0F172A"/>
<path d="M16.3225 6.31741C16.4704 6.47752 16.6841 6.73571 16.804 6.89246L19.0128 5.48202C18.9025 5.33688 18.7265 5.11627 18.5954 4.96074L17.1964 5.89116L17.1009 5.97366L17.172 5.86915L17.7898 4.62921L17.3528 4.18982L16.1196 4.81102L16.016 4.88252L16.0985 4.78657L17.0237 3.3801C16.861 3.24077 16.7046 3.11304 16.5054 2.95843L15.1031 5.17829C15.2809 5.31579 15.5151 5.51746 15.6643 5.65496L16.9843 4.96593L17.0686 4.90329L17.0066 4.98854L16.3225 6.31771V6.31741ZM11.3104 3.50385L11.914 2.14413L11.9523 2.02343L11.9414 2.14902L12.0047 3.96646C12.2166 3.98663 12.4354 4.01627 12.6509 4.05232L12.5526 1.36068C12.2513 1.32707 11.9511 1.30324 11.6509 1.29041L11.0563 2.77479L11.0352 2.8851L11.0141 2.7751L10.4204 1.29041C10.12 1.30324 9.8198 1.32707 9.51843 1.36068L9.42049 4.05263C9.63596 4.01596 9.85446 3.98724 10.0663 3.96646L10.1296 2.14902L10.1188 2.02343L10.1573 2.14382L10.7607 3.50385H11.3104ZM6.42909 5.64916C6.77807 5.27943 6.97547 4.85227 6.62679 4.44466C6.43692 4.22343 6.11807 4.17485 5.85377 4.28393L5.82755 4.29432L5.83599 4.2711C5.87517 4.16599 5.90018 3.83049 5.61599 3.59888C5.47736 3.48582 5.30377 3.44396 5.12777 3.46199C4.80018 3.4956 4.54824 3.72079 3.86202 4.49049C3.65468 4.72271 3.35331 5.08938 3.17249 5.32649L5.05725 7.12529C5.68199 6.42985 5.93665 6.17104 6.42909 5.64916ZM3.96991 5.20916C4.34903 4.74196 4.75257 4.31816 4.9355 4.15041C4.99336 4.09754 5.05605 4.04468 5.13229 4.02391C5.25616 3.98968 5.38394 4.07829 5.41257 4.20602C5.4415 4.33435 5.36133 4.45627 5.27213 4.55679C5.07142 4.78474 4.33517 5.55932 4.33517 5.55932L3.96961 5.20916H3.96991ZM4.70796 5.91377C4.70796 5.91377 5.42492 5.1511 5.65909 4.90727C5.75191 4.81041 5.81158 4.75143 5.87577 4.71996C5.95835 4.67932 6.04876 4.67107 6.12983 4.72516C6.20909 4.77893 6.24586 4.87091 6.22596 4.96257C6.20216 5.07166 6.11355 5.17554 6.04062 5.25499L5.0901 6.27829L4.70796 5.91377Z" fill="#0F172A"/>
<path d="M17.5044 10.9728H11.0358V4.4657C14.6107 4.4657 17.5044 7.37673 17.5044 10.9728ZM11.0358 10.9728V17.4799C7.46095 17.4799 4.5672 14.5689 4.5672 10.9728H11.0358Z" fill="#F8FAFC"/>
<path d="M11.0358 4.4657V10.9728H4.5672C4.5672 7.37673 7.46095 4.4657 11.0358 4.4657ZM17.5044 10.9728C17.5044 14.5692 14.6107 17.4799 11.0358 17.4799V10.9728H17.5044Z" fill="#0F172A"/>
</g>
<defs>
<clipPath id="clip0_1747_1076">
<rect width="22" height="22" fill="white"/>
</clipPath>
</defs>
</svg>
