<svg width="27" height="10" viewBox="0 0 27 10" fill="none" xmlns="http://www.w3.org/2000/svg">
<g clip-path="url(#clip0_1747_1169)">
<path d="M18.2023 6.06008C18.2069 6.0833 18.234 6.10419 18.2635 6.1158C18.2748 6.12045 18.2793 6.12741 18.268 6.15063C18.1865 6.32941 18.1118 6.43157 18.0122 6.5848C17.9194 6.72876 17.813 6.8402 17.6862 6.94701C17.4938 7.10953 17.2267 7.28831 17.0072 7.16758C16.9098 7.1165 16.8668 6.97487 16.8691 6.8611C16.8736 6.54069 17.0117 6.21332 17.2697 5.89059C17.5821 5.49588 17.9284 5.29156 18.1548 5.40301C18.3902 5.51678 18.3155 5.79539 18.2091 6.01596C18.2001 6.02989 18.2001 6.04615 18.2023 6.06008ZM20.7195 3.56646C20.7353 3.53628 20.7195 3.51306 20.681 3.51306C20.4841 3.51306 20.2283 3.51306 20.0246 3.51306C19.977 3.51306 19.9499 3.52003 19.9272 3.56646C19.8525 3.71506 18.9335 5.12671 18.7637 5.40069C18.7343 5.44248 18.7003 5.43551 18.6958 5.38908C18.6777 5.22655 18.5419 5.03849 18.3246 4.95026C18.1593 4.88293 17.9986 4.86899 17.8311 4.89221C17.5301 4.934 17.2607 5.09653 17.023 5.28227C16.6676 5.56089 16.3598 5.92077 15.9614 6.18778C15.744 6.33173 15.4475 6.45943 15.2483 6.27136C15.0695 6.09955 15.0899 5.7211 15.3638 5.42623C15.3932 5.39604 15.4271 5.42158 15.4226 5.44944C15.3977 5.58179 15.4294 5.71413 15.5267 5.807C15.6467 5.91845 15.8187 5.93006 15.9659 5.85576C16.1402 5.76753 16.242 5.59804 16.2715 5.40533C16.3167 5.10582 16.0926 4.84113 15.812 4.82024C15.5833 4.80398 15.3638 4.88525 15.151 5.06635C15.0446 5.1569 14.9835 5.22423 14.8907 5.35889C14.868 5.3914 14.8341 5.39604 14.8341 5.34728C14.8454 4.96419 14.6892 4.74826 14.3813 4.7413C14.1414 4.73433 13.8856 4.86899 13.6842 5.03152C13.4646 5.21262 13.2744 5.45177 13.0684 5.67698C13.0435 5.70484 13.0209 5.70252 13.0141 5.64912C13.0073 5.39604 12.9462 5.14761 12.8308 4.97348C12.79 4.91311 12.704 4.88292 12.6338 4.92472C12.5999 4.94329 12.4844 4.99669 12.4007 5.06635C12.3599 5.10117 12.3418 5.15225 12.3622 5.21726C12.4731 5.59804 12.4482 6.02757 12.2988 6.39442C12.1607 6.72876 11.8936 7.03059 11.5767 7.13043C11.3685 7.19776 11.1534 7.16526 11.0199 6.97719C10.8365 6.71715 10.9112 6.2644 11.1828 5.88826C11.4251 5.55625 11.7737 5.34728 12.12 5.2103C12.1607 5.19405 12.1698 5.16618 12.1585 5.13136C12.1404 5.07331 12.1087 4.99205 12.0973 4.95722C12.0657 4.86899 11.9751 4.85506 11.8665 4.86899C11.6129 4.89918 11.3866 4.98741 11.1602 5.11278C10.5694 5.43784 10.2751 6.06472 10.1438 6.39906C10.0805 6.55926 10.0284 6.66142 9.95822 6.74965C9.86541 6.87039 9.74771 6.97951 9.53493 7.1699C9.51455 7.18847 9.50097 7.2233 9.51682 7.25813C9.53945 7.30456 9.65037 7.46477 9.68206 7.4787C9.71602 7.49727 9.75676 7.47173 9.77261 7.46012C9.92201 7.35564 10.1008 7.1908 10.1891 7.07935C10.2208 7.0422 10.2502 7.05613 10.2683 7.11418C10.3498 7.41369 10.5626 7.65748 10.8591 7.75964C11.4002 7.9477 11.9615 7.67605 12.3848 7.20473C12.6542 6.90521 12.7515 6.7125 12.8534 6.58016C13.0277 6.35727 13.374 5.8604 13.7838 5.54232C13.9354 5.4239 14.112 5.33568 14.2025 5.39372C14.275 5.44248 14.2976 5.5516 14.1821 5.76753C13.7634 6.5523 13.1477 7.47406 13.0345 7.69695C13.0141 7.73642 13.0322 7.7666 13.0707 7.7666C13.2903 7.7666 13.5076 7.7666 13.7068 7.7666C13.7407 7.76428 13.7543 7.75035 13.7724 7.72481C14.0939 7.20937 14.3972 6.71715 14.7209 6.20867C14.739 6.17849 14.7548 6.20171 14.7571 6.21564C14.7639 6.33405 14.7911 6.49425 14.8612 6.60106C14.9835 6.79609 15.1578 6.87967 15.3502 6.882C15.5041 6.88432 15.5811 6.85878 15.7463 6.79609C15.8799 6.74501 15.9885 6.67768 16.0723 6.61731C16.1198 6.58248 16.1289 6.64053 16.1289 6.64982C16.0542 7.05845 16.147 7.54603 16.5431 7.74571C17.0185 7.98485 17.5391 7.64819 17.8402 7.34403C17.8696 7.31385 17.9013 7.3185 17.9035 7.38118C17.9103 7.49727 17.9601 7.63658 18.0552 7.73178C18.3065 7.99182 18.8158 7.88734 19.3251 7.48334C19.6533 7.2233 19.9951 6.85878 20.303 6.47104C20.3143 6.45711 20.3234 6.43157 20.3007 6.40835C20.2532 6.35727 20.1853 6.29922 20.1377 6.25511C20.1174 6.23654 20.0857 6.24118 20.0676 6.25511C19.7507 6.56391 19.4654 6.91682 19.0535 7.20937C18.9154 7.30921 18.6936 7.38815 18.594 7.25116C18.5555 7.19776 18.56 7.12346 18.5985 7.02595C18.7162 6.7125 20.6199 3.7406 20.7195 3.56646Z" fill="white"/>
<path d="M11.7623 3.92406C11.7714 3.96817 11.7872 3.97746 11.8076 3.97281C11.9049 3.95192 12.0113 3.87066 12.0724 3.77546C12.129 3.68955 12.1562 3.5665 12.0996 3.51542C12.0498 3.47131 11.966 3.48291 11.9049 3.53864C11.7827 3.65008 11.7465 3.80797 11.7623 3.92406ZM6.9091 7.75271C6.19832 7.75735 5.57356 7.30692 5.50112 6.52912C5.46038 6.09726 5.58035 5.71184 5.81803 5.39608C6.02855 5.11282 6.3862 4.87832 6.68953 4.82259C6.78913 4.80402 6.92042 4.81563 6.97474 4.88296C7.06076 4.98512 7.03586 5.09889 6.94984 5.143C6.71895 5.26374 6.44053 5.47038 6.30471 5.75364C6.19379 5.98349 6.17116 6.26211 6.34093 6.5268C6.62614 6.96794 7.42068 6.97955 8.15862 6.27604C8.34197 6.10423 8.50495 5.93706 8.67246 5.74203C8.99842 5.36125 9.10708 5.22194 9.53943 4.60667C9.54396 4.5997 9.54622 4.59041 9.54396 4.58577C9.53943 4.57648 9.5349 4.57648 9.52132 4.57416C9.23158 4.58345 8.98032 4.67168 8.73584 4.85742C8.66567 4.91082 8.56381 4.90386 8.51854 4.8342C8.46874 4.75526 8.50495 4.6531 8.58644 4.59506C8.98032 4.31412 9.4104 4.26304 9.84955 4.18642C9.84955 4.18642 9.87897 4.18874 9.90614 4.15391C10.0872 3.91709 10.223 3.70349 10.4155 3.46202C10.6101 3.21823 10.8591 2.99534 11.0493 2.82584C11.3164 2.59134 11.4861 2.5124 11.6604 2.41489C11.7057 2.38935 11.6537 2.36148 11.6401 2.36148C10.669 2.17342 9.6594 1.93195 8.69736 2.2988C8.02959 2.55419 7.73759 3.0975 7.87793 3.4597C7.97753 3.71742 8.30802 3.75921 8.61814 3.60365C8.87393 3.47363 9.11161 3.26699 9.28138 2.99998C9.37645 2.85138 9.57339 2.95819 9.467 3.21591C9.18404 3.8962 8.6453 4.43485 7.98885 4.45807C7.42973 4.47665 7.06982 4.05408 7.06982 3.53399C7.07208 2.50776 8.18578 1.83211 9.35608 1.73228C10.7663 1.61386 12.0996 1.99696 13.4985 2.1711C14.5715 2.30344 15.5992 2.30808 16.6766 2.05268C16.8034 2.02482 16.8939 2.10841 16.8849 2.24075C16.8736 2.43114 16.731 2.61456 16.3756 2.81424C15.9727 3.04177 15.5494 3.1091 15.1079 3.11375C14.0418 3.12304 13.0481 2.69582 12.0204 2.46829C12.0226 2.51472 12.0339 2.57045 11.9955 2.59831C11.425 3.03016 10.9112 3.46666 10.5671 4.08194C10.5558 4.09587 10.5603 4.1098 10.583 4.10748C10.8818 4.09123 11.1511 4.08426 11.4318 4.06104C11.4816 4.0564 11.4816 4.04479 11.4771 4.00764C11.4522 3.79636 11.5133 3.55489 11.6944 3.38772C11.88 3.21591 12.1132 3.19733 12.2671 3.32039C12.4414 3.4597 12.4278 3.71277 12.3305 3.90084C12.2331 4.09355 12.0724 4.19571 11.9162 4.24447C11.9162 4.24447 11.8845 4.25143 11.8891 4.28161C11.8959 4.33037 12.1064 4.45111 12.1245 4.48129C12.1426 4.51147 12.1335 4.55791 12.1019 4.59506C12.0792 4.6206 12.0453 4.64614 12 4.64614C11.9638 4.64614 11.9411 4.63221 11.8959 4.60667C11.8008 4.55326 11.6831 4.46736 11.6039 4.3652C11.5767 4.33037 11.5631 4.33037 11.4952 4.33269C11.1919 4.35127 10.721 4.3977 10.4019 4.43718C10.3249 4.44646 10.3136 4.46271 10.2977 4.48825C9.78843 5.34964 9.24516 6.27836 8.64756 6.90061C8.00696 7.57161 7.475 7.74807 6.9091 7.75271Z" fill="white"/>
<path d="M13.082 0.817538C6.44276 0.817538 1.06212 2.6982 1.06212 5.00142C1.06212 7.30465 6.44276 9.18531 13.082 9.18531C19.7189 9.18531 25.0996 7.30465 25.0996 5.00142C25.0996 2.70052 19.7189 0.817538 13.082 0.817538ZM13.082 9.56609C6.20282 9.56609 0.625244 7.5229 0.625244 5.00375C0.625244 2.48227 6.20282 0.441406 13.082 0.441406C19.9611 0.441406 25.5387 2.48459 25.5387 5.00375C25.5387 7.5229 19.9611 9.56609 13.082 9.56609Z" fill="white"/>
</g>
<defs>
<clipPath id="clip0_1747_1169">
<rect width="26" height="10" fill="white" transform="translate(0.083374)"/>
</clipPath>
</defs>
</svg>
