<svg width="113" height="109" viewBox="0 0 113 109" fill="none" xmlns="http://www.w3.org/2000/svg">
<mask id="mask0_1915_14341" style="mask-type:alpha" maskUnits="userSpaceOnUse" x="0" y="0" width="96" height="96">
<circle cx="48" cy="48" r="48" fill="#D9D9D9"/>
</mask>
<g mask="url(#mask0_1915_14341)">
<circle cx="48" cy="48" r="48" fill="#F5F5FF"/>
<g filter="url(#filter0_d_1915_14341)">
<rect x="-2" y="19" width="65.6066" height="110.056" rx="8" fill="#4038FF"/>
</g>
<rect x="2.10034" y="30.0056" width="57.4057" height="89.4206" rx="4" fill="#534CFF"/>
<rect x="2.10034" y="24.5027" width="16.4016" height="2.7514" rx="1" fill="#7974FF"/>
<rect x="6" y="35" width="50" height="26" rx="2" fill="#7974FF"/>
<rect x="6" y="64" width="39" height="4" rx="1" fill="#7974FF"/>
<rect x="6" y="70" width="30" height="4" rx="1" fill="#7974FF"/>
<rect x="6" y="76" width="47" height="4" rx="1" fill="#7974FF"/>
<rect x="45.8381" y="24.5027" width="13.668" height="2.7514" rx="1" fill="#7974FF"/>
<rect x="37.6375" y="24.5027" width="6.83402" height="2.7514" rx="1" fill="#7974FF"/>
</g>
<g filter="url(#filter1_d_1915_14341)">
<rect x="53" y="45" width="40" height="40" rx="8" fill="#0F172A"/>
<path d="M77.1667 63.1667H68.8334C67.9129 63.1667 67.1667 63.9128 67.1667 64.8333V69.8333C67.1667 70.7538 67.9129 71.5 68.8334 71.5H77.1667C78.0872 71.5 78.8334 70.7538 78.8334 69.8333V64.8333C78.8334 63.9128 78.0872 63.1667 77.1667 63.1667Z" stroke="white" stroke-width="1.5" stroke-linecap="round" stroke-linejoin="round"/>
<path d="M73.0001 68.1667C73.4603 68.1667 73.8334 67.7936 73.8334 67.3333C73.8334 66.8731 73.4603 66.5 73.0001 66.5C72.5398 66.5 72.1667 66.8731 72.1667 67.3333C72.1667 67.7936 72.5398 68.1667 73.0001 68.1667Z" fill="white" stroke="white" stroke-linecap="round" stroke-linejoin="round"/>
<path d="M69.6667 63.1667V59.8333C69.6667 58.9493 70.0179 58.1014 70.6431 57.4763C71.2682 56.8512 72.116 56.5 73.0001 56.5C73.8841 56.5 74.732 56.8512 75.3571 57.4763C75.9822 58.1014 76.3334 58.9493 76.3334 59.8333V63.1667" stroke="white" stroke-width="1.5" stroke-linecap="round" stroke-linejoin="round"/>
<rect x="75.5" y="66.5" width="9" height="9" rx="4.5" fill="#FF4747"/>
<path d="M78.25 69.25L81.75 72.75M81.75 69.25L78.25 72.75L81.75 69.25Z" stroke="white" stroke-width="0.75" stroke-linecap="round" stroke-linejoin="round"/>
<rect x="75.5" y="66.5" width="9" height="9" rx="4.5" stroke="#0F172A"/>
</g>
<defs>
<filter id="filter0_d_1915_14341" x="-8" y="15" width="81.6064" height="126.056" filterUnits="userSpaceOnUse" color-interpolation-filters="sRGB">
<feFlood flood-opacity="0" result="BackgroundImageFix"/>
<feColorMatrix in="SourceAlpha" type="matrix" values="0 0 0 0 0 0 0 0 0 0 0 0 0 0 0 0 0 0 127 0" result="hardAlpha"/>
<feOffset dx="2" dy="4"/>
<feGaussianBlur stdDeviation="4"/>
<feComposite in2="hardAlpha" operator="out"/>
<feColorMatrix type="matrix" values="0 0 0 0 0.0588235 0 0 0 0 0.0901962 0 0 0 0 0.164706 0 0 0 0.4 0"/>
<feBlend mode="normal" in2="BackgroundImageFix" result="effect1_dropShadow_1915_14341"/>
<feBlend mode="normal" in="SourceGraphic" in2="effect1_dropShadow_1915_14341" result="shape"/>
</filter>
<filter id="filter1_d_1915_14341" x="41" y="37" width="72" height="72" filterUnits="userSpaceOnUse" color-interpolation-filters="sRGB">
<feFlood flood-opacity="0" result="BackgroundImageFix"/>
<feColorMatrix in="SourceAlpha" type="matrix" values="0 0 0 0 0 0 0 0 0 0 0 0 0 0 0 0 0 0 127 0" result="hardAlpha"/>
<feOffset dx="4" dy="8"/>
<feGaussianBlur stdDeviation="8"/>
<feComposite in2="hardAlpha" operator="out"/>
<feColorMatrix type="matrix" values="0 0 0 0 0.0588235 0 0 0 0 0.0901962 0 0 0 0 0.164706 0 0 0 0.2 0"/>
<feBlend mode="normal" in2="BackgroundImageFix" result="effect1_dropShadow_1915_14341"/>
<feBlend mode="normal" in="SourceGraphic" in2="effect1_dropShadow_1915_14341" result="shape"/>
</filter>
</defs>
</svg>
