<svg width="130" height="109" viewBox="0 0 130 109" fill="none" xmlns="http://www.w3.org/2000/svg">
<mask id="mask0_3366_10913" style="mask-type:alpha" maskUnits="userSpaceOnUse" x="0" y="0" width="96" height="96">
<circle cx="48" cy="48" r="48" fill="#D9D9D9"/>
</mask>
<g mask="url(#mask0_3366_10913)">
<circle cx="48" cy="48" r="48" fill="#F5F5FF"/>
<g filter="url(#filter0_d_3366_10913)">
<rect x="-2" y="19" width="65.6066" height="110.056" rx="8" fill="#4038FF"/>
</g>
<rect x="2.10034" y="30.0056" width="57.4057" height="89.4206" rx="4" fill="#534CFF"/>
<rect x="2.10034" y="24.5027" width="16.4016" height="2.7514" rx="1" fill="#7974FF"/>
<rect x="6" y="35" width="50" height="26" rx="2" fill="#7974FF"/>
<rect x="6" y="64" width="39" height="4" rx="1" fill="#7974FF"/>
<rect x="6" y="70" width="30" height="4" rx="1" fill="#7974FF"/>
<rect x="6" y="76" width="47" height="4" rx="1" fill="#7974FF"/>
<rect x="45.8381" y="24.5027" width="13.668" height="2.7514" rx="1" fill="#7974FF"/>
<rect x="37.6375" y="24.5027" width="6.83402" height="2.7514" rx="1" fill="#7974FF"/>
</g>
<g filter="url(#filter1_d_3366_10913)">
<rect x="31" y="45" width="79" height="40" rx="8" fill="#0F172A"/>
</g>
<circle cx="48" cy="65" r="10" fill="#22C55E"/>
<path d="M43.9167 65.0002L46.8334 67.9168L52.6667 62.0835" stroke="white" stroke-width="1.52103" stroke-linecap="round" stroke-linejoin="round"/>
<rect x="64" y="53" width="20.5405" height="2.08695" rx="0.760514" fill="#2A3646"/>
<rect x="64" y="57.174" width="38" height="2.08695" rx="0.760514" fill="#2A3646"/>
<rect x="64" y="62.3914" width="38" height="14.6087" rx="1.52103" fill="#1B2537"/>
<path d="M70.6492 72.8262L70.7392 70.4349L68.6477 71.7175L68.1079 70.8044L70.3119 69.6957L68.1079 68.587L68.6477 67.674L70.7392 68.9566L70.6492 66.5653H71.7287L71.6388 68.9566L73.7303 67.674L74.2701 68.587L72.0661 69.6957L74.2701 70.8044L73.7303 71.7175L71.6388 70.4349L71.7287 72.8262H70.6492Z" fill="white"/>
<path d="M78.8655 72.8262L78.9555 70.4349L76.864 71.7175L76.3242 70.8044L78.5282 69.6957L76.3242 68.587L76.864 67.674L78.9555 68.9566L78.8655 66.5653H79.9451L79.8551 68.9566L81.9466 67.674L82.4864 68.587L80.2824 69.6957L82.4864 70.8044L81.9466 71.7175L79.8551 70.4349L79.9451 72.8262H78.8655Z" fill="white"/>
<path d="M87.0814 72.8262L87.1713 70.4349L85.0798 71.7175L84.54 70.8044L86.744 69.6957L84.54 68.587L85.0798 67.674L87.1713 68.9566L87.0814 66.5653H88.1609L88.0709 68.9566L90.1624 67.674L90.7022 68.587L88.4982 69.6957L90.7022 70.8044L90.1624 71.7175L88.0709 70.4349L88.1609 72.8262H87.0814Z" fill="white"/>
<path d="M95.2977 72.8262L95.3876 70.4349L93.2961 71.7175L92.7563 70.8044L94.9603 69.6957L92.7563 68.587L93.2961 67.674L95.3876 68.9566L95.2977 66.5653H96.3772L96.2872 68.9566L98.3788 67.674L98.9185 68.587L96.7145 69.6957L98.9185 70.8044L98.3788 71.7175L96.2872 70.4349L96.3772 72.8262H95.2977Z" fill="white"/>
<defs>
<filter id="filter0_d_3366_10913" x="-8" y="15" width="81.6064" height="126.056" filterUnits="userSpaceOnUse" color-interpolation-filters="sRGB">
<feFlood flood-opacity="0" result="BackgroundImageFix"/>
<feColorMatrix in="SourceAlpha" type="matrix" values="0 0 0 0 0 0 0 0 0 0 0 0 0 0 0 0 0 0 127 0" result="hardAlpha"/>
<feOffset dx="2" dy="4"/>
<feGaussianBlur stdDeviation="4"/>
<feComposite in2="hardAlpha" operator="out"/>
<feColorMatrix type="matrix" values="0 0 0 0 0.0588235 0 0 0 0 0.0901962 0 0 0 0 0.164706 0 0 0 0.4 0"/>
<feBlend mode="normal" in2="BackgroundImageFix" result="effect1_dropShadow_3366_10913"/>
<feBlend mode="normal" in="SourceGraphic" in2="effect1_dropShadow_3366_10913" result="shape"/>
</filter>
<filter id="filter1_d_3366_10913" x="19" y="37" width="111" height="72" filterUnits="userSpaceOnUse" color-interpolation-filters="sRGB">
<feFlood flood-opacity="0" result="BackgroundImageFix"/>
<feColorMatrix in="SourceAlpha" type="matrix" values="0 0 0 0 0 0 0 0 0 0 0 0 0 0 0 0 0 0 127 0" result="hardAlpha"/>
<feOffset dx="4" dy="8"/>
<feGaussianBlur stdDeviation="8"/>
<feComposite in2="hardAlpha" operator="out"/>
<feColorMatrix type="matrix" values="0 0 0 0 0.0588235 0 0 0 0 0.0901962 0 0 0 0 0.164706 0 0 0 0.2 0"/>
<feBlend mode="normal" in2="BackgroundImageFix" result="effect1_dropShadow_3366_10913"/>
<feBlend mode="normal" in="SourceGraphic" in2="effect1_dropShadow_3366_10913" result="shape"/>
</filter>
</defs>
</svg>
