<svg width="20" height="20" viewBox="0 0 20 20" fill="none" xmlns="http://www.w3.org/2000/svg">
<g clip-path="url(#clip0_3385_7384)">
<path d="M10.0011 19.9606L12.7881 4.21953C15.4446 4.21953 16.2825 4.51207 16.4035 5.70615C16.4035 5.70615 18.1856 5.03885 19.0844 3.6836C15.577 2.05142 12.0529 1.97781 12.0529 1.97781L9.99651 4.49314L10.0011 4.49282L7.94477 1.97742C7.94477 1.97742 4.42059 2.0511 0.913696 3.68328C1.81171 5.03854 3.59446 5.70583 3.59446 5.70583C3.71615 4.51168 4.55304 4.21914 7.1917 4.21724L10.0011 19.9606Z" fill="white"/>
<path d="M10 1.25125C12.8352 1.22948 16.0805 1.69172 19.4026 3.14583C19.8466 2.34324 19.9607 1.98853 19.9607 1.98853C16.3292 0.545618 12.9283 0.0518152 9.99963 0.0394287C7.07117 0.0518152 3.67041 0.545697 0.0393066 1.98853C0.0393066 1.98853 0.201296 2.42545 0.597079 3.14583C3.91858 1.69172 7.16434 1.22948 9.99963 1.25125H10Z" fill="white"/>
</g>
<defs>
<clipPath id="clip0_3385_7384">
<rect width="20" height="20" fill="white"/>
</clipPath>
</defs>
</svg>
